<svg width="497" height="434" viewBox="0 0 497 434" fill="none" xmlns="http://www.w3.org/2000/svg">
<mask id="mask0_1168_5970" style="mask-type:luminance" maskUnits="userSpaceOnUse" x="135" y="189" width="226" height="91">
<path d="M361 189H135V279.4H361V189Z" fill="white"/>
</mask>
<g mask="url(#mask0_1168_5970)">
<path d="M315.946 217.256V276.932H335.59V194.681H315.946V217.256Z" fill="#ECF8FE"/>
<path d="M164.746 247.687C167.031 246.343 169.84 244.743 173.175 242.91L181.751 238.244C185.147 236.362 187.859 234.273 189.936 231.989C190.144 231.708 190.351 231.427 190.535 231.134C192.55 228.019 193.723 224.781 194.041 221.434C194.346 217.989 194.151 214.617 193.442 211.307C193.137 209.865 192.734 208.497 192.269 207.214C192.257 207.166 192.233 207.117 192.221 207.068C192.001 206.469 191.769 205.883 191.512 205.321C191.512 205.284 191.475 205.248 191.463 205.211C191.207 204.637 190.926 204.075 190.62 203.537C190.547 203.391 190.461 203.256 190.376 203.122C190.168 202.768 189.961 202.413 189.741 202.071C189.594 201.839 189.435 201.619 189.289 201.399C189.118 201.167 188.959 200.935 188.776 200.703C188.592 200.459 188.409 200.214 188.214 199.982C188.189 199.946 188.165 199.909 188.128 199.872C188.116 199.86 188.104 199.848 188.091 199.836C187.383 198.993 186.626 198.211 185.807 197.49C181.959 194.07 177.414 191.834 172.174 190.796C166.933 189.757 161.619 189.806 156.244 190.955C151.357 191.993 146.691 193.642 142.244 195.89C139.703 197.112 137.822 198.639 135.928 199.995C137.431 209.939 142.207 216.047 146.055 217.671C146.532 217.403 147.008 217.158 147.485 216.914C150.343 215.143 153.739 213.823 157.722 212.98C160.458 212.394 162.902 212.309 165.064 212.712C165.357 212.761 165.626 212.834 165.882 212.919C165.919 212.919 165.943 212.944 165.98 212.956C166.2 213.029 166.408 213.115 166.603 213.213C166.64 213.213 166.676 213.249 166.713 213.274C166.896 213.371 167.08 213.469 167.238 213.579C167.275 213.603 167.299 213.628 167.336 213.652C167.483 213.762 167.629 213.884 167.764 214.019C168.326 214.581 168.717 215.289 168.9 216.169C169.205 217.61 168.863 218.942 167.898 220.151C167.788 220.298 167.666 220.432 167.532 220.579C167.397 220.713 167.275 220.848 167.128 220.982C167.031 221.068 166.921 221.153 166.811 221.251C166.652 221.385 166.493 221.52 166.31 221.654H166.322C164.135 223.157 161.448 224.94 158.247 227.005L150.026 232.258C144.48 235.861 140.888 239.917 139.251 244.413C137.529 248.933 137.101 253.184 137.944 257.154C139.068 262.456 141.609 266.842 145.555 270.323C149.476 273.732 154.314 276.065 160.031 277.36C165.736 278.569 171.819 278.484 178.282 277.103C183.242 276.041 187.982 274.123 192.502 271.35C192.685 271.24 192.856 271.117 193.039 270.995C185.282 264.337 184.769 255.395 184.512 253.16V253.013C181.214 255.09 177.488 256.275 172.723 256.934C169.963 257.325 167.507 257.24 165.382 256.69C163.256 256.14 162.059 254.894 161.778 252.964C161.485 250.863 162.474 249.104 164.746 247.674V247.687Z" fill="white"/>
<path fill-rule="evenodd" clip-rule="evenodd" d="M244.665 227.518C243.993 226.785 243.297 226.088 242.551 225.417C239.51 222.68 236.077 220.542 232.265 219.015C228.454 217.488 224.532 216.731 220.501 216.731C216.47 216.731 212.536 217.488 208.737 219.015C204.925 220.542 201.505 222.668 198.451 225.417C195.409 228.153 192.966 231.439 191.133 235.238C189.386 238.964 188.507 243.081 188.507 247.577C188.507 248.126 188.519 248.664 188.543 249.214C188.727 253.086 189.594 256.69 191.133 260.037C192.648 263.14 194.591 265.889 196.948 268.308C197.437 268.796 197.926 269.285 198.451 269.749C201.493 272.486 204.925 274.623 208.737 276.15C212.548 277.678 216.47 278.435 220.501 278.435C224.532 278.435 228.466 277.678 232.265 276.15C236.077 274.623 239.497 272.498 242.551 269.749C243.187 269.175 243.785 268.564 244.359 267.953C245.153 268.821 245.996 269.664 246.9 270.433C249.942 273.023 253.375 275.002 257.186 276.37C261.071 277.739 265.066 278.423 269.183 278.423C273.519 278.423 277.404 277.812 280.837 276.59C283.109 275.796 285.064 275.002 286.689 274.22V257.35C285.333 257.985 283.696 258.681 281.741 259.451C278.54 260.685 274.729 261.296 270.319 261.296C267.045 261.296 264.15 260.611 261.633 259.243C259.117 257.875 257.443 255.774 256.612 252.964H286.689V223.254C285.455 222.191 284.111 221.239 282.657 220.396C278.394 217.965 273.519 216.743 268.034 216.743C262.171 216.743 256.881 218.185 252.153 221.08C249.283 222.863 246.803 225.001 244.653 227.518H244.665ZM225.192 258.657C226.866 258.046 228.307 256.861 229.529 255.114C230.751 253.367 231.361 250.924 231.361 247.577C231.361 244.23 230.751 241.713 229.529 240.039C228.319 238.292 226.866 237.107 225.192 236.497C223.519 235.886 221.955 235.58 220.513 235.58C219.072 235.58 217.581 235.886 215.835 236.497C214.161 237.107 212.719 238.292 211.498 240.039C210.276 241.713 209.665 244.303 209.665 247.577C209.665 250.851 210.276 253.367 211.498 255.114C212.707 256.861 214.161 258.046 215.835 258.657C217.581 259.268 219.145 259.573 220.513 259.573C221.955 259.573 223.519 259.268 225.192 258.657ZM267.472 232.966C264.956 232.966 262.794 233.65 260.961 235.018C259.141 236.313 257.809 238.341 256.967 241.078H277.649C277.649 238.329 276.574 236.313 274.448 235.018C272.383 233.65 269.989 232.966 267.472 232.966Z" fill="#ECF8FE"/>
<path d="M291.453 217.256V276.932H311.096V194.681H291.453V217.256Z" fill="#ECF8FE"/>
<path d="M352.852 242.312C354.525 243.167 356.236 243.9 357.982 244.535C359.265 244.999 360.096 246.233 360.096 247.589V276.932H340.452V240.113C340.452 237.279 343.763 235.837 345.925 237.682C348.087 239.526 350.298 241.004 352.864 242.312H352.852Z" fill="white"/>
</g>
</svg>
