<svg width="497" height="434" viewBox="0 0 497 434" fill="none" xmlns="http://www.w3.org/2000/svg">
<path d="M376.25 289H120.75C90.528 289 66 264.36 66 234C66 203.64 90.528 179 120.75 179H376.25C406.472 179 431 203.64 431 234C431 264.36 406.472 289 376.25 289Z" fill="#E6FF4D"/>
<path d="M154.549 214.66C150.644 212.835 146.081 211.959 140.898 211.959H118.122L121.444 233.822L118.122 255.686H140.898C146.081 255.686 150.644 254.773 154.549 252.985C158.455 251.16 161.521 248.641 163.674 245.356C165.828 242.071 166.923 238.239 166.923 233.859C166.923 229.479 165.828 225.646 163.674 222.361C161.484 219.04 158.455 216.485 154.549 214.66ZM153.089 239.699C152.031 241.378 150.534 242.655 148.6 243.568C146.665 244.48 144.402 244.955 141.774 244.955H131.007L132.832 233.822L131.007 222.69H141.774C144.402 222.69 146.665 223.164 148.6 224.077C150.534 224.989 152.031 226.267 153.089 227.909C154.148 229.552 154.659 231.523 154.659 233.822C154.695 236.085 154.148 238.056 153.089 239.699Z" fill="#1F4030"/>
<path d="M184.333 211.886H172.251V255.613H184.333V211.886Z" fill="#1F4030"/>
<path d="M226.235 238.129C228.717 236.961 230.688 235.319 232.075 233.238C233.462 231.121 234.192 228.712 234.192 225.938C234.192 223.091 233.499 220.646 232.075 218.565C230.688 216.485 228.717 214.842 226.235 213.674C223.753 212.506 220.833 211.886 217.475 211.886H191.487V255.613H203.569V239.881H209.92L221.709 255.613H235.725L223.133 239.224C224.228 238.932 225.286 238.567 226.235 238.129ZM203.569 220.865H215.76C217.694 220.865 219.227 221.303 220.322 222.179C221.417 223.055 221.965 224.296 221.965 225.938C221.965 227.544 221.417 228.785 220.322 229.661C219.227 230.574 217.731 231.012 215.76 231.012H203.569V220.865Z" fill="#1F4030"/>
<path d="M252.771 238.129H277.335V229.369H252.771L251.53 221.668H278.941V211.886H238.536L241.857 233.749L238.536 255.613H279.233V245.831H251.53L252.771 238.129Z" fill="#1F4030"/>
<path d="M331.611 211.886H318.836L297.228 239.407V211.886H285.183V255.613H296.096L309.017 239.699L318.471 255.613H332.195L316.719 230.245L331.611 211.886Z" fill="#1F4030"/>
<path d="M379.426 211.886H333.874V222.617H350.591V255.613H362.745V222.617H379.426V211.886Z" fill="#1F4030"/>
</svg>
