<svg width="497" height="434" viewBox="0 0 497 434" fill="none" xmlns="http://www.w3.org/2000/svg">
<path d="M138.745 266C133.768 266 129.406 264.986 125.659 262.958C121.913 260.873 119.033 257.944 117.02 254.169C115.007 250.338 114 245.831 114 240.648V206H127.421V240.648C127.421 243.014 127.924 245.127 128.931 246.986C129.937 248.845 131.307 250.31 133.041 251.38C134.774 252.394 136.676 252.901 138.745 252.901C140.814 252.901 142.715 252.394 144.448 251.38C146.182 250.31 147.552 248.845 148.559 246.986C149.565 245.127 150.068 243.014 150.068 240.648V206H163.489V240.648C163.489 245.831 162.482 250.338 160.469 254.169C158.456 257.944 155.577 260.873 151.83 262.958C148.083 264.986 143.721 266 138.745 266ZM183.178 265.155H169.757V206H186.114L204.568 241.493H206.245V206H219.666V265.155H203.309L184.856 229.662H183.178V265.155ZM239.827 265.155H226.406V206H239.827V265.155ZM259.774 266C256.53 266 253.678 265.408 251.218 264.225C248.757 262.986 246.856 261.38 245.514 259.408C244.228 257.38 243.585 255.211 243.585 252.901H248.366C248.366 255.268 249.401 257.296 251.469 258.986C253.538 260.676 256.306 261.521 259.774 261.521C263.297 261.521 266.009 260.817 267.91 259.408C269.867 258 270.846 256.197 270.846 254C270.846 250.056 268.245 247.634 263.045 246.732L255.747 245.465C248.198 244.169 244.424 240.366 244.424 234.056C244.424 230.563 245.71 227.69 248.282 225.437C250.91 223.183 254.601 222.056 259.354 222.056C262.486 222.056 265.254 222.676 267.658 223.916C270.063 225.099 271.908 226.704 273.194 228.732C274.536 230.704 275.207 232.845 275.207 235.155H270.426C270.426 232.732 269.42 230.704 267.407 229.07C265.394 227.38 262.709 226.535 259.354 226.535C256.111 226.535 253.595 227.239 251.805 228.648C250.072 230.056 249.205 231.859 249.205 234.056C249.205 235.859 249.764 237.352 250.882 238.535C252.057 239.662 253.958 240.451 256.586 240.901L263.884 242.169C271.713 243.577 275.627 247.521 275.627 254C275.627 257.493 274.229 260.366 271.433 262.62C268.693 264.873 264.806 266 259.774 266ZM285.609 265.155H280.912V206H285.609V242.423L306.412 222.901H312.619L290.558 243.606L313.458 265.155H307.25L285.609 244.789V265.155ZM319.804 265.155H315.106V222.901H319.804V265.155ZM320.307 212.761H314.687V207.099H320.307V212.761ZM332.802 265.155H328.104V206H332.802V265.155ZM346.199 265.155H341.502V206H346.199V265.155ZM367.147 266C363.903 266 361.051 265.408 358.591 264.225C356.13 262.986 354.229 261.38 352.887 259.408C351.601 257.38 350.958 255.211 350.958 252.901H355.739C355.739 255.268 356.773 257.296 358.843 258.986C360.911 260.676 363.68 261.521 367.147 261.521C370.67 261.521 373.381 260.817 375.283 259.408C377.24 258 378.219 256.197 378.219 254C378.219 250.056 375.619 247.634 370.418 246.732L363.12 245.465C355.571 244.169 351.797 240.366 351.797 234.056C351.797 230.563 353.083 227.69 355.655 225.437C358.283 223.183 361.974 222.056 366.727 222.056C369.859 222.056 372.627 222.676 375.031 223.916C377.436 225.099 379.281 226.704 380.567 228.732C381.91 230.704 382.581 232.845 382.581 235.155H377.799C377.799 232.732 376.793 230.704 374.78 229.07C372.767 227.38 370.082 226.535 366.727 226.535C363.484 226.535 360.967 227.239 359.178 228.648C357.444 230.056 356.578 231.859 356.578 234.056C356.578 235.859 357.137 237.352 358.255 238.535C359.43 239.662 361.331 240.451 363.959 240.901L371.257 242.169C379.085 243.577 383 247.521 383 254C383 257.493 381.602 260.366 378.806 262.62C376.066 264.873 372.179 266 367.147 266Z" fill="white"/>
</svg>
