<svg width="497" height="434" viewBox="0 0 497 434" fill="none" xmlns="http://www.w3.org/2000/svg">
<path d="M127.695 270.095C120.832 270.095 115.665 267.78 112.201 263.142C108.732 258.508 107 251.445 107 241.954V210.747H124.739V239.654C124.739 245.06 125.54 249.091 127.148 251.754C128.75 254.422 131.199 255.751 134.484 255.751C136.455 255.751 138.152 255.258 139.576 254.272C140.999 253.287 142.204 251.903 143.189 250.111C144.175 248.325 144.901 246.264 145.379 243.925C145.852 241.59 146.091 239.037 146.091 236.26V210.747H163.72V268.562H149.704L149.376 250.714H147.186C146.091 255.243 144.722 258.946 143.08 261.828C141.437 264.715 139.372 266.81 136.893 268.124C134.409 269.438 131.344 270.095 127.695 270.095Z" fill="black"/>
<path d="M200.049 270.095C196.177 270.095 192.673 269.746 189.537 269.055C186.396 268.363 183.659 267.357 181.325 266.043C178.985 264.729 177.069 263.142 175.576 261.28C174.078 259.419 173.038 257.358 172.455 255.094L185.595 249.29C186.103 250.534 186.999 251.794 188.278 253.068C189.552 254.347 191.269 255.387 193.424 256.189C195.574 256.995 198.187 257.393 201.253 257.393C204.319 257.393 206.455 256.975 208.097 256.134C209.74 255.298 210.561 254.073 210.561 252.466C210.561 251.301 210.103 250.37 209.192 249.673C208.281 248.982 206.913 248.359 205.086 247.812C203.259 247.264 201 246.737 198.297 246.224C195.52 245.642 192.713 244.965 189.866 244.198C187.019 243.432 184.351 242.377 181.872 241.023C179.389 239.674 177.398 237.887 175.905 235.658C174.406 233.433 173.66 230.606 173.66 227.171C173.66 223.737 174.605 220.477 176.507 217.809C178.403 215.147 181.235 213.046 184.993 211.513C188.751 209.98 193.33 209.214 198.735 209.214C203.553 209.214 207.784 209.836 211.437 211.075C215.085 212.319 218.131 214.086 220.58 216.386C223.024 218.685 224.721 221.443 225.672 224.653L211.546 229.69C211.178 228.087 210.431 226.699 209.302 225.529C208.167 224.364 206.743 223.468 205.031 222.846C203.314 222.229 201.288 221.916 198.954 221.916C196.107 221.916 193.897 222.354 192.329 223.23C190.757 224.106 189.975 225.275 189.975 226.733C189.975 227.903 190.503 228.869 191.563 229.635C192.618 230.402 194.136 231.044 196.107 231.551C198.078 232.064 200.412 232.612 203.115 233.194C205.962 233.781 208.789 234.453 211.601 235.22C214.408 235.986 216.966 237.011 219.266 238.286C221.565 239.565 223.387 241.242 224.741 243.322C226.09 245.403 226.767 248.086 226.767 251.371C226.767 255.243 225.741 258.583 223.701 261.39C221.655 264.202 218.644 266.357 214.667 267.85C210.685 269.343 205.813 270.095 200.049 270.095Z" fill="black"/>
<path d="M249.278 270.095C246.063 270.095 243.216 269.453 240.738 268.179C238.254 266.905 236.318 265.043 234.934 262.594C233.545 260.15 232.854 257.174 232.854 253.67C232.854 250.385 233.491 247.668 234.77 245.512C236.044 243.362 237.905 241.645 240.354 240.366C242.798 239.092 245.735 238.032 249.169 237.191C252.598 236.354 256.505 235.603 260.885 234.946C263.001 234.583 264.772 234.234 266.196 233.906C267.619 233.577 268.695 233.05 269.426 232.318C270.158 231.586 270.521 230.531 270.521 229.142C270.521 227.321 269.864 225.748 268.55 224.434C267.236 223.12 265.116 222.463 262.199 222.463C260.154 222.463 258.312 222.831 256.67 223.558C255.027 224.29 253.619 225.35 252.454 226.733C251.284 228.122 250.408 229.799 249.826 231.77L234.277 227.171C235.223 224.106 236.557 221.443 238.274 219.178C239.986 216.918 242.052 215.037 244.46 213.539C246.869 212.046 249.622 210.946 252.728 210.254C255.828 209.562 259.133 209.214 262.637 209.214C268.476 209.214 273.239 210.144 276.927 212.006C280.61 213.867 283.347 216.754 285.139 220.656C286.926 224.563 287.822 229.58 287.822 235.712V244.582C287.822 247.21 287.877 249.858 287.986 252.52C288.096 255.188 288.24 257.851 288.424 260.514C288.603 263.182 288.842 265.864 289.136 268.562H273.587C273.293 266.885 273.005 264.859 272.711 262.485C272.417 260.116 272.198 257.687 272.054 255.203H269.974C268.948 257.98 267.47 260.514 265.539 262.813C263.603 265.113 261.269 266.9 258.531 268.179C255.794 269.458 252.708 270.095 249.278 270.095ZM257.272 257.612C258.586 257.612 259.915 257.378 261.269 256.9C262.617 256.427 263.911 255.77 265.156 254.929C266.395 254.093 267.525 253.053 268.55 251.809C269.57 250.569 270.337 249.22 270.85 247.757L270.631 239.107L273.04 239.654C271.651 240.53 270.118 241.227 268.441 241.735C266.758 242.247 265.061 242.651 263.349 242.939C261.632 243.233 259.955 243.541 258.312 243.87C256.67 244.198 255.206 244.622 253.932 245.129C252.653 245.642 251.648 246.334 250.921 247.21C250.189 248.086 249.826 249.29 249.826 250.823C249.826 252.869 250.518 254.511 251.906 255.751C253.29 256.995 255.082 257.612 257.272 257.612Z" fill="black"/>
<path d="M322.742 288.819C316.317 288.819 311.041 288.326 306.92 287.341C302.793 286.355 299.782 284.892 297.886 282.961C295.985 281.025 295.039 278.671 295.039 275.898C295.039 272.539 296.368 269.801 299.036 267.686C301.698 265.571 305.62 264.366 310.807 264.072V261.773C306.79 261.773 303.704 261.375 301.554 260.569C299.399 259.767 298.324 258.269 298.324 256.079C298.324 254.038 299.379 252.177 301.499 250.495C303.615 248.817 307.119 247.503 312.011 246.553V244.253C307.557 243.89 304.018 242.412 301.39 239.819C298.762 237.225 297.448 233.816 297.448 229.58C297.448 226.007 298.468 222.737 300.514 219.78C302.555 216.824 305.62 214.45 309.712 212.663C313.798 210.876 318.91 209.98 325.042 209.98L364.635 210.747V223.757L336.758 220.821V223.449C341.501 224.105 344.896 225.2 346.941 226.733C348.982 228.266 350.007 230.422 350.007 233.194C350.007 236.115 349.002 238.709 346.996 240.968C344.985 243.233 342.158 245.005 338.51 246.279C334.857 247.558 330.516 248.195 325.48 248.195C324.604 248.195 323.633 248.16 322.578 248.086C321.518 248.016 319.567 247.832 316.72 247.538C315.55 248.563 314.639 249.42 313.982 250.111C313.325 250.808 312.997 251.445 312.997 252.028C312.997 252.466 313.176 252.834 313.544 253.123C313.908 253.416 314.435 253.615 315.132 253.725C315.824 253.834 316.57 253.889 317.377 253.889H335.006C336.464 253.889 338.38 253.984 340.755 254.163C343.124 254.347 345.498 254.914 347.872 255.86C350.241 256.811 352.252 258.344 353.894 260.459C355.537 262.579 356.358 265.605 356.358 269.547C356.358 273.853 355.154 277.451 352.745 280.333C350.336 283.215 346.648 285.35 341.685 286.739C336.718 288.122 330.407 288.819 322.742 288.819ZM325.042 274.803C329.272 274.803 332.557 274.584 334.896 274.146C337.231 273.708 338.853 273.012 339.769 272.066C340.68 271.115 341.138 269.946 341.138 268.562C341.138 267.248 340.879 266.208 340.371 265.441C339.859 264.675 339.202 264.147 338.4 263.853C337.594 263.565 336.773 263.381 335.937 263.306C335.096 263.236 334.384 263.196 333.801 263.196H319.676C316.973 263.196 314.983 263.839 313.708 265.113C312.429 266.392 311.792 267.87 311.792 269.547C311.792 270.931 312.23 272.011 313.106 272.778C313.982 273.544 315.386 274.072 317.322 274.365C319.253 274.654 321.826 274.803 325.042 274.803ZM324.275 239.435C327.411 239.435 329.765 238.599 331.338 236.917C332.906 235.24 333.692 233.124 333.692 230.566C333.692 227.794 332.886 225.514 331.283 223.722C329.675 221.935 327.376 221.04 324.385 221.04C321.393 221.04 319.054 221.935 317.377 223.722C315.694 225.514 314.858 227.794 314.858 230.566C314.858 232.248 315.222 233.761 315.953 235.11C316.68 236.464 317.74 237.519 319.129 238.286C320.512 239.052 322.229 239.435 324.275 239.435Z" fill="black"/>
<path d="M373.505 202.644C370.145 202.644 367.572 201.932 365.785 200.509C363.993 199.085 363.102 197.059 363.102 194.431C363.102 191.659 363.993 189.559 365.785 188.135C367.572 186.712 370.145 186 373.505 186C376.864 186 379.542 186.712 381.334 188.135C383.121 189.559 384.017 191.659 384.017 194.431C384.017 197.059 383.121 199.085 381.334 200.509C379.542 201.932 376.934 202.644 373.505 202.644ZM364.635 268.562V210.747H382.265V268.562H364.635Z" fill="black"/>
<path d="M156.668 293C153.308 293 150.735 292.288 148.948 290.865C147.156 289.441 146.265 287.416 146.265 284.788C146.265 282.015 147.156 279.915 148.948 278.491C150.735 277.068 153.308 276.356 156.668 276.356C160.027 276.356 162.705 277.068 164.497 278.491C166.283 279.915 167.179 282.015 167.179 284.788C167.179 287.416 166.283 289.441 164.497 290.865C162.705 292.288 160.097 293 156.668 293Z" fill="black"/>
</svg>
