<svg width="497" height="434" viewBox="0 0 497 434" fill="none" xmlns="http://www.w3.org/2000/svg">
<path d="M94.4678 243.363H86.3162V258.606C86.3162 260.482 85.2681 261.538 83.4049 261.538H79.9113C78.0481 261.538 77 260.482 77 258.606V214.869C77 212.993 78.0481 211.938 79.9113 211.938H98.5437C108.675 211.938 114.265 219.325 114.265 228.002C114.265 235.389 110.189 241.252 103.085 242.894C103.551 248.17 106.579 254.619 111.353 254.619C112.751 254.619 113.799 254.385 114.731 253.916C116.477 253.212 117.525 253.447 118.341 255.206L118.806 256.144C119.622 257.903 119.389 259.31 117.875 260.248C115.662 261.772 112.984 262.358 110.189 262.358C98.1943 262.358 94.9336 249.108 94.4678 243.363ZM97.0298 236.327C101.804 236.327 104.716 232.81 104.716 228.119C104.716 223.312 101.688 219.794 97.0298 219.794H86.3162V236.327H97.0298Z" fill="#1B4C2E"/>
<path d="M122.067 236.679C122.067 222.608 133.13 211 148.036 211C162.825 211 173.888 222.608 173.888 236.679C173.888 250.75 162.825 262.358 148.036 262.358C133.13 262.358 122.067 250.75 122.067 236.679ZM164.456 236.679C164.456 226.83 157.352 219.325 148.036 219.325C138.603 219.325 131.5 226.947 131.5 236.679C131.5 246.412 138.603 254.033 148.036 254.033C157.352 254.15 164.456 246.529 164.456 236.679Z" fill="#1B4C2E"/>
<path d="M176.916 258.137L193.569 214.283C194.151 212.642 195.315 211.821 197.062 211.821H201.604C203.351 211.821 204.399 212.642 205.097 214.283L221.983 258.137C222.798 260.248 221.866 261.655 219.654 261.655H216.277C214.53 261.655 213.365 260.834 212.783 259.192L209.988 251.923H188.794L186.116 259.192C185.533 260.834 184.369 261.538 182.622 261.538H179.245C177.149 261.538 176.217 260.131 176.916 258.137ZM207.892 244.418L199.391 221.319L191.007 244.418H207.892Z" fill="#1B4C2E"/>
<path d="M230.018 258.606V214.869C230.018 212.993 231.066 211.938 232.929 211.938H247.835C263.207 211.938 273.105 223.077 273.105 236.796C273.105 250.515 263.207 261.655 247.835 261.655H232.929C231.066 261.538 230.018 260.482 230.018 258.606ZM247.369 253.681C257.501 253.681 263.789 246.294 263.789 236.679C263.789 227.064 257.501 219.677 247.369 219.677H239.334V253.564H247.369V253.681Z" fill="#1B4C2E"/>
<path d="M282.305 258.606V214.869C282.305 212.993 283.353 211.938 285.216 211.938H287.08C288.594 211.938 289.875 212.524 290.69 213.814L313.281 244.653V214.869C313.281 212.993 314.33 211.938 316.193 211.938H319.686C321.55 211.938 322.714 212.993 322.714 214.869V258.606C322.714 260.482 321.55 261.538 319.686 261.538H317.94C316.426 261.538 315.261 260.951 314.33 259.661L291.738 228.588V258.489C291.738 260.365 290.69 261.42 288.826 261.42H285.449C283.353 261.538 282.305 260.482 282.305 258.606Z" fill="#1B4C2E"/>
<path d="M344.258 219.794V233.396H361.493C363.356 233.396 364.521 234.451 364.521 236.327V237.735C364.521 239.611 363.356 240.783 361.493 240.783H344.258V253.681H364.521C366.384 253.681 367.432 254.854 367.432 256.73V258.606C367.432 260.482 366.384 261.538 364.521 261.538H337.969C336.106 261.538 335.058 260.482 335.058 258.606V214.869C335.058 212.993 336.106 211.938 337.969 211.938H364.521C366.384 211.938 367.432 212.993 367.432 214.869V216.746C367.432 218.622 366.384 219.794 364.521 219.794H344.258Z" fill="#1B4C2E"/>
<path d="M391.188 258.606V241.252L373.953 215.456C372.556 213.345 373.487 211.821 375.933 211.821H380.242C381.872 211.821 383.036 212.407 383.852 213.814L395.73 233.162L407.841 213.814C408.656 212.407 409.82 211.821 411.451 211.821H415.759C418.205 211.821 419.02 213.345 417.623 215.456L400.504 241.135V258.489C400.504 260.365 399.456 261.42 397.593 261.42H394.216C392.236 261.538 391.188 260.482 391.188 258.606Z" fill="#1B4C2E"/>
</svg>
