<svg width="497" height="434" viewBox="0 0 497 434" fill="none" xmlns="http://www.w3.org/2000/svg">
<path d="M191.355 137.413C191.342 137.223 191.332 137.101 191.319 136.92C191.436 136.987 191.526 137.041 191.621 137.096C191.916 136.983 191.819 136.737 191.821 136.515C191.824 135.998 192.116 135.611 192.576 135.741C193.403 135.973 193.947 135.495 194.543 135.134C194.948 134.889 195.366 134.627 195.523 134.108C195.573 133.937 195.85 133.916 195.938 134.036C196.182 134.379 196.503 134.335 196.856 134.367C197.326 134.409 197.778 134.655 198.269 134.495C198.76 134.71 199.143 134.437 199.572 134.208C199.614 133.957 199.646 133.698 199.697 133.445C199.747 133.195 199.907 133.042 200.16 133.005C200.414 132.968 200.633 133.126 200.741 133.422C200.785 133.545 200.815 133.672 200.834 133.802C200.894 134.228 201.196 134.437 201.56 134.492C202 134.56 202.457 134.56 202.87 134.323C202.925 134.291 202.962 134.228 203.015 134.194C203.435 133.923 203.647 133.953 203.919 134.33C204.184 134.696 204.445 135.065 204.719 135.451C205.727 135.363 206.288 136.128 207.032 136.633C207.272 136.508 207.521 136.35 207.791 136.251C207.923 136.202 208.132 136.214 208.241 136.29C208.345 136.366 208.448 136.617 208.4 136.698C207.932 137.481 208.361 137.974 208.914 138.44C208.963 138.481 209.013 138.521 209.083 138.578C209.412 138.634 209.77 138.673 210.113 138.759C210.605 138.882 210.766 139.121 210.729 139.605C210.72 139.735 210.701 139.869 210.658 139.989C210.455 140.534 210.688 140.955 211.045 141.319C211.85 142.132 211.857 142.125 212.168 143.021C212.41 143.114 212.685 143.211 212.952 143.32C213.462 143.529 213.547 143.786 213.257 144.219C213.238 144.247 213.217 144.272 213.192 144.293C212.728 144.712 212.761 145.224 212.961 145.739C213.13 146.172 213.25 146.579 213.153 147.066C213.038 147.643 213.36 148.108 214.091 148.157C214.357 148.175 214.62 148.154 214.834 148.326C214.922 148.395 215 148.534 215 148.643C215.002 148.838 214.832 148.94 214.666 148.912C214.382 148.866 214.105 148.766 213.826 148.69C213.374 148.565 213.139 148.699 213.054 149.162C212.934 149.82 212.853 150.478 213.547 150.957C213.333 151.618 213.81 152.287 213.46 153.017C213.134 153.007 212.786 153.01 212.44 152.986C211.981 152.956 211.608 153.054 211.389 153.517C211.322 153.656 211.163 153.749 211.061 153.846C211.243 154.321 211.681 154.726 211.103 155.108C211.16 155.366 211.234 155.613 211.269 155.868C211.301 156.097 211.08 156.31 210.847 156.301C210.752 156.297 210.642 156.294 210.563 156.248C209.991 155.914 209.648 156.266 209.325 156.66C209.043 157.005 208.928 157.404 208.99 157.851C209.037 158.194 208.919 158.435 208.55 158.481C208.31 158.511 208.264 158.655 208.204 158.868C208.139 159.097 207.932 159.283 207.842 159.509C207.761 159.718 207.768 159.959 207.708 160.176C207.676 160.297 207.595 160.411 207.517 160.51C207.127 160.999 206.804 160.992 206.424 160.494C206.248 160.262 206.08 160.026 205.884 159.762C205.653 159.827 205.446 159.885 205.107 159.982C205.024 159.885 204.858 159.692 204.655 159.456C204.45 159.674 204.27 159.79 204.207 159.952C204.15 160.107 204.212 160.311 204.226 160.536C203.804 160.753 203.61 161.349 203.018 161.333C202.911 161.548 202.812 161.717 202.741 161.895C202.536 162.412 202.102 162.53 201.625 162.505C201.184 162.481 200.804 162.301 200.615 161.854C200.564 161.733 200.534 161.601 200.467 161.495C200.218 161.098 199.796 160.871 199.383 161.057C198.954 161.247 198.502 161.277 198.071 161.416C197.561 161.583 197.423 161.761 197.476 162.266C197.504 162.525 197.584 162.78 197.605 163.04C197.654 163.635 197.361 163.964 196.759 163.996C196.533 164.008 196.302 163.992 196.076 163.959C195.566 163.887 195.285 163.635 195.188 163.185C195.08 162.69 195.239 162.261 195.656 161.995C195.848 161.872 196.067 161.793 196.263 161.678C196.567 161.495 196.648 161.302 196.565 161.034C196.468 160.719 196.307 160.6 195.935 160.573C195.841 160.566 195.746 160.554 195.659 160.545C195.453 160.135 195.255 159.739 195.045 159.315C194.808 159.359 194.591 159.401 194.367 159.442C194.353 159.581 194.314 159.683 194.342 159.762C194.522 160.262 194.24 160.577 193.899 160.851C193.816 160.918 193.639 160.943 193.546 160.899C193.461 160.858 193.382 160.698 193.385 160.591C193.394 160.13 193.615 159.78 194.054 159.572C193.828 159.317 193.726 159.055 193.313 159.238C192.991 159.38 192.624 159.173 192.393 158.896C192.216 158.68 192.017 158.673 191.775 158.733C191.957 158.073 191.948 158.082 191.445 157.793C190.85 157.453 190.26 157.121 189.552 157.054C189.305 157.031 189.07 156.866 188.833 156.76C188.484 156.605 188.145 156.57 187.816 156.813C187.712 156.89 187.596 156.957 187.479 157.008C186.974 157.218 186.473 156.98 186.335 156.45C186.243 156.095 186.25 155.738 186.416 155.395C186.561 155.092 186.833 155.006 187.124 154.93C187.184 154.914 187.237 154.867 187.341 154.81C187.592 154.374 187.673 153.881 187.525 153.343C187.456 153.093 187.44 152.859 187.573 152.59C187.834 152.065 187.765 151.59 187.313 151.3C186.771 150.95 186.672 150.478 186.619 149.906C186.584 149.535 186.63 149.118 186.337 148.801C186.303 148.764 186.402 148.599 186.577 148.405C186.404 148.08 186.153 147.761 186.061 147.397C185.966 147.024 186.005 146.61 186.026 146.213C186.037 145.993 186.199 145.769 186.171 145.562C186.072 144.828 186.471 144.319 186.879 143.809C187.02 143.633 187.188 143.475 187.348 143.311C187.666 142.98 187.707 142.637 187.414 142.259C187.32 142.139 187.274 141.979 187.184 141.791C187.449 141.56 187.684 141.342 187.931 141.143C188.245 140.89 188.452 140.557 188.547 140.181C188.766 139.313 189.204 138.65 190.059 138.31C190.138 138.277 190.244 138.208 190.26 138.136C190.375 137.566 190.876 137.562 191.355 137.413Z" fill="#161920"/>
<path d="M208.008 168.069C207.966 167.436 208.09 167.099 208.395 167.01C208.682 166.926 208.954 167.386 208.996 168.024C209.026 168.501 208.896 168.913 208.694 168.976C208.298 169.095 208.054 168.773 208.008 168.069Z" fill="#161920"/>
<path d="M214 158C212.381 157.43 212.381 157.43 212 157C212.619 157.05 213.102 157.276 214 158Z" fill="#161920"/>
<path d="M213.943 166C215.133 166 215.948 166.251 216.386 166.754C216.888 167.194 217.138 167.947 217.138 169.015V199.64C217.138 200.708 217.232 201.431 217.42 201.808C217.608 202.185 217.922 202.373 218.36 202.373C218.924 202.373 219.3 202.153 219.488 201.713C219.739 201.274 219.99 200.268 220.24 198.698C220.366 197.63 220.491 197.002 220.616 196.813C220.742 196.562 220.992 196.436 221.368 196.436H222.966C223.342 196.436 223.593 196.656 223.718 197.096C223.906 197.536 224 198.29 224 199.358C224 204.383 222.653 208.247 219.958 210.948C217.264 213.649 213.41 215 208.397 215C203.572 215 199.843 213.649 197.211 210.948C194.642 208.184 193.358 204.258 193.358 199.169V177.59C193.358 175.392 193.044 173.727 192.418 172.596C191.791 171.403 190.632 170.303 188.94 169.298C188.501 169.047 188.251 168.858 188.188 168.733C188.063 168.544 188 168.324 188 168.073V166.942C188 166.314 188.376 166 189.128 166H213.943Z" fill="#161920"/>
<path d="M238.874 167.108C241.925 167.108 244.353 167.662 246.158 168.769C248.026 169.815 249.302 171.477 249.986 173.754C251.418 171.231 253.348 169.323 255.776 168.031C258.266 166.677 261.067 166 264.18 166C268.662 166 272.086 167.323 274.452 169.969C276.817 172.616 278 176.369 278 181.231V211.046C278 212.092 277.751 212.862 277.253 213.354C276.817 213.785 276.008 214 274.825 214H258.017C256.834 214 255.994 213.785 255.496 213.354C255.06 212.862 254.842 212.092 254.842 211.046V179.292C254.842 178.615 254.686 178.062 254.375 177.631C254.064 177.2 253.628 176.985 253.068 176.985C252.321 176.985 251.792 177.231 251.48 177.723V211.046C251.48 212.092 251.231 212.862 250.734 213.354C250.298 213.785 249.488 214 248.306 214H231.497C230.315 214 229.474 213.785 228.976 213.354C228.54 212.862 228.323 212.092 228.323 211.046V178.462C228.323 176.308 228.011 174.677 227.389 173.569C226.766 172.4 225.615 171.323 223.934 170.338C223.498 170.092 223.249 169.908 223.187 169.785C223.062 169.6 223 169.385 223 169.139V168.031C223 167.415 223.373 167.108 224.12 167.108H238.874Z" fill="#161920"/>
<path d="M285.316 158.442C285.316 156.271 285.005 154.628 284.383 153.512C283.761 152.333 282.611 151.248 280.933 150.256C280.497 150.008 280.249 149.822 280.187 149.698C280.062 149.512 280 149.295 280 149.046V147.93C280 147.31 280.373 147 281.119 147H305.273C306.454 147 307.262 147.248 307.697 147.744C308.195 148.178 308.443 148.923 308.443 149.977V175.093C310.06 172.054 312.298 169.698 315.158 168.023C318.08 166.349 321.344 165.511 324.95 165.511C329.737 165.511 333.654 166.876 336.7 169.605C339.809 172.271 341.363 175.651 341.363 179.744C341.363 183.217 340.182 186.039 337.819 188.209C335.457 190.38 332.41 191.465 328.68 191.465C323.582 191.465 319.976 189.481 317.862 185.512C316.805 185.512 316.277 186.07 316.277 187.186C316.277 188.302 316.805 189.388 317.862 190.442C318.919 191.496 320.38 192.395 322.245 193.139C324.11 193.884 326.069 194.256 328.121 194.256C333.467 194.256 337.85 192.426 341.27 188.767C341.643 188.395 341.891 188.178 342.016 188.116C342.202 187.992 342.451 187.93 342.762 187.93H343.881C344.316 187.93 344.596 188.085 344.72 188.395C344.907 188.705 345 189.356 345 190.349C345 198.039 343.508 204.085 340.524 208.488C337.539 212.829 333.436 215 328.214 215C322.867 215 318.701 213.015 315.717 209.046C312.733 205.015 311.241 199.434 311.241 192.302C311.241 186.039 312.485 181.015 314.971 177.232C317.458 173.388 320.784 171.465 324.95 171.465C325.198 171.155 325.323 170.783 325.323 170.349C325.323 169.915 325.136 169.605 324.763 169.419C324.453 169.171 324.048 169.046 323.551 169.046C320.629 169.046 318.049 170.039 315.811 172.023C313.573 174.008 311.769 176.891 310.402 180.674C309.096 184.395 308.443 188.426 308.443 192.767V210.907C308.443 211.961 308.195 212.736 307.697 213.233C307.2 213.667 306.392 213.884 305.273 213.884H288.486C286.373 213.884 285.316 212.891 285.316 210.907V158.442Z" fill="#161920"/>
<path d="M157.358 244.442C157.358 242.271 157.044 240.628 156.418 239.512C155.791 238.333 154.632 237.248 152.94 236.256C152.501 236.008 152.251 235.822 152.188 235.698C152.063 235.512 152 235.295 152 235.047V233.93C152 233.31 152.376 233 153.128 233H177.943C179.133 233 179.948 233.248 180.386 233.744C180.888 234.178 181.138 234.923 181.138 235.977V285.837C181.138 286.892 181.232 287.605 181.42 287.977C181.608 288.349 181.922 288.535 182.36 288.535C182.924 288.535 183.3 288.318 183.488 287.884C183.739 287.45 183.99 286.457 184.24 284.907C184.365 283.853 184.491 283.233 184.616 283.047C184.742 282.798 184.992 282.675 185.368 282.675H186.966C187.342 282.675 187.593 282.891 187.718 283.326C187.906 283.76 188 284.504 188 285.558C188 290.519 186.653 294.333 183.958 297C181.264 299.667 177.41 301 172.397 301C167.572 301 163.843 299.667 161.211 297C158.642 294.271 157.358 290.395 157.358 285.372V244.442Z" fill="#161920"/>
<path d="M190.204 240.131C190.204 237.364 191.27 235.15 193.402 233.49C195.534 231.83 198.398 231 201.992 231C205.586 231 208.45 231.83 210.582 233.49C212.775 235.15 213.872 237.364 213.872 240.131C213.872 242.836 212.775 245.018 210.582 246.679C208.45 248.339 205.586 249.169 201.992 249.169C198.398 249.169 195.534 248.369 193.402 246.771C191.27 245.111 190.204 242.897 190.204 240.131ZM211.222 253.042C212.379 253.042 213.171 253.288 213.598 253.78C214.085 254.21 214.329 254.948 214.329 255.994V285.967C214.329 287.012 214.42 287.719 214.603 288.088C214.786 288.457 215.09 288.642 215.517 288.642C216.065 288.642 216.431 288.427 216.614 287.996C216.857 287.566 217.101 286.582 217.344 285.045C217.466 284 217.588 283.385 217.71 283.2C217.832 282.954 218.076 282.831 218.441 282.831H219.995C220.36 282.831 220.604 283.047 220.726 283.477C220.908 283.907 221 284.645 221 285.69C221 290.609 219.69 294.39 217.07 297.034C214.451 299.678 210.704 301 205.83 301C201.139 301 197.514 299.678 194.956 297.034C192.458 294.329 191.209 290.486 191.209 285.506V264.386C191.209 262.234 190.904 260.605 190.295 259.498C189.686 258.33 188.559 257.254 186.914 256.27C186.487 256.024 186.244 255.84 186.183 255.717C186.061 255.532 186 255.317 186 255.071V253.964C186 253.35 186.365 253.042 187.097 253.042H211.222Z" fill="#161920"/>
<path d="M236.874 252.131C239.925 252.131 242.352 252.696 244.158 253.827C246.026 254.895 247.302 256.591 247.986 258.915C249.418 256.34 251.348 254.392 253.776 253.073C256.266 251.691 259.067 251 262.18 251C266.662 251 270.086 252.351 272.452 255.052C274.817 257.753 276 261.585 276 266.548V296.985C276 298.053 275.751 298.838 275.253 299.34C274.817 299.78 274.008 300 272.825 300H256.017C254.834 300 253.994 299.78 253.496 299.34C253.06 298.838 252.842 298.053 252.842 296.985V264.569C252.842 263.878 252.686 263.313 252.375 262.873C252.064 262.433 251.628 262.213 251.068 262.213C250.321 262.213 249.792 262.465 249.481 262.967V296.985C249.481 298.053 249.232 298.838 248.733 299.34C248.298 299.78 247.488 300 246.306 300H229.497C228.315 300 227.474 299.78 226.976 299.34C226.54 298.838 226.323 298.053 226.323 296.985V263.721C226.323 261.522 226.011 259.858 225.389 258.727C224.766 257.533 223.615 256.434 221.934 255.429C221.498 255.178 221.249 254.989 221.187 254.863C221.062 254.675 221 254.455 221 254.204V253.073C221 252.445 221.373 252.131 222.12 252.131H236.874Z" fill="#161920"/>
<path d="M283.315 244.442C283.315 242.271 283.005 240.628 282.383 239.512C281.761 238.333 280.611 237.248 278.933 236.256C278.497 236.008 278.248 235.822 278.186 235.698C278.062 235.512 278 235.295 278 235.047V233.93C278 233.31 278.373 233 279.119 233H303.273C304.454 233 305.262 233.248 305.697 233.744C306.195 234.178 306.443 234.923 306.443 235.977V261.093C308.06 258.054 310.298 255.698 313.158 254.023C316.08 252.349 319.344 251.512 322.95 251.512C327.737 251.512 331.654 252.876 334.7 255.605C337.809 258.271 339.363 261.651 339.363 265.744C339.363 269.217 338.182 272.039 335.819 274.209C333.457 276.38 330.41 277.465 326.68 277.465C321.582 277.465 317.976 275.481 315.862 271.512C314.805 271.512 314.277 272.07 314.277 273.186C314.277 274.302 314.805 275.388 315.862 276.442C316.919 277.496 318.38 278.395 320.245 279.14C322.11 279.884 324.069 280.256 326.12 280.256C331.467 280.256 335.85 278.426 339.27 274.768C339.643 274.395 339.891 274.178 340.016 274.116C340.202 273.992 340.451 273.93 340.762 273.93H341.881C342.316 273.93 342.596 274.085 342.72 274.395C342.907 274.705 343 275.357 343 276.349C343 284.039 341.508 290.085 338.524 294.488C335.54 298.829 331.436 301 326.214 301C320.867 301 316.702 299.016 313.717 295.047C310.733 291.016 309.241 285.434 309.241 278.302C309.241 272.039 310.484 267.016 312.971 263.233C315.458 259.388 318.784 257.465 322.95 257.465C323.198 257.155 323.323 256.783 323.323 256.349C323.323 255.915 323.136 255.605 322.763 255.419C322.452 255.171 322.048 255.047 321.551 255.047C318.629 255.047 316.049 256.039 313.81 258.023C311.572 260.008 309.77 262.892 308.402 266.674C307.096 270.395 306.443 274.426 306.443 278.767V296.907C306.443 297.961 306.195 298.736 305.697 299.233C305.2 299.667 304.392 299.884 303.273 299.884H286.486C284.372 299.884 283.315 298.891 283.315 296.907V244.442Z" fill="#161920"/>
</svg>
