<svg width="497" height="434" viewBox="0 0 497 434" fill="none" xmlns="http://www.w3.org/2000/svg">
<path d="M75.422 237.422C77.7581 237.844 79.8817 239.11 81.3683 241.009C82.8548 242.908 83.7043 245.229 83.7043 247.761C83.7043 250.083 83.0672 251.982 82.0054 253.881C80.9435 255.569 79.2446 257.046 77.121 257.89C74.9973 258.945 72.4489 259.367 69.4758 259.367H51V216.743H68.8387C71.8118 216.743 74.3602 217.165 76.2715 218.22C78.3952 219.064 80.0941 220.541 81.1559 222.229C82.2177 223.706 82.6425 225.606 82.6425 227.716C82.6425 230.248 82.0054 232.358 80.5188 234.046C79.2446 235.523 77.5457 236.789 75.422 237.422ZM59.4946 234.257H67.3521C69.4758 234.257 70.9624 233.835 72.0242 232.991C73.086 232.147 73.7231 230.67 73.7231 228.982C73.7231 227.294 73.086 226.028 72.0242 224.972C71.1747 224.128 69.4758 223.495 67.5645 223.495H59.4946V234.257ZM68.2016 252.404C70.3253 252.404 71.8118 251.982 73.086 250.927C74.3602 249.872 74.7849 248.606 74.7849 246.706C74.7849 244.807 74.1478 243.541 72.8737 242.486C71.5995 241.431 69.9005 240.798 67.9892 240.798H59.4946V252.404H68.2016ZM105.578 260C102.392 260 99.4194 259.367 96.6586 257.89C94.1102 256.413 91.9866 254.303 90.5 251.771C89.0134 249.028 88.3763 246.073 88.3763 242.697C88.3763 239.321 89.2258 236.156 90.7124 233.413C92.1989 230.67 94.3226 228.771 97.0833 227.294C99.8441 225.817 102.817 225.183 106.003 225.183C109.188 225.183 112.161 225.817 114.922 227.294C117.683 228.771 119.594 230.67 121.293 233.413C122.78 236.156 123.629 239.11 123.629 242.697C123.629 246.284 122.78 249.239 121.293 251.771C119.806 254.514 117.683 256.413 114.922 257.89C111.949 259.156 108.976 260 105.578 260ZM105.578 252.404C107.065 252.404 108.551 251.982 110.038 251.349C111.524 250.505 112.586 249.45 113.435 247.972C114.285 246.495 114.71 244.596 114.71 242.486C114.71 239.321 113.86 236.789 112.161 235.101C110.462 233.413 108.339 232.569 106.003 232.569C103.667 232.569 101.543 233.413 99.8441 235.101C98.1452 236.789 97.2957 239.321 97.2957 242.486C97.2957 245.651 98.1452 248.183 99.6317 249.872C101.118 251.56 103.242 252.404 105.578 252.404ZM144.866 260C141.68 260 138.707 259.367 135.946 257.89C133.398 256.413 131.274 254.303 129.788 251.771C128.301 249.028 127.664 246.073 127.664 242.697C127.664 239.321 128.513 236.156 130 233.413C131.487 230.67 133.61 228.771 136.371 227.294C139.132 225.817 142.105 225.183 145.29 225.183C148.476 225.183 151.449 225.817 154.21 227.294C156.97 228.771 158.882 230.67 160.581 233.413C162.067 236.156 162.917 239.11 162.917 242.697C162.917 246.284 162.067 249.239 160.581 251.771C159.094 254.514 156.97 256.413 154.21 257.89C151.237 259.156 148.263 260 144.866 260ZM144.866 252.404C146.352 252.404 147.839 251.982 149.325 251.349C150.812 250.505 151.874 249.45 152.723 247.972C153.573 246.495 153.997 244.596 153.997 242.486C153.997 239.321 153.148 236.789 151.449 235.101C149.75 233.413 147.626 232.569 145.29 232.569C142.954 232.569 140.831 233.413 139.132 235.101C137.433 236.789 136.583 239.321 136.583 242.486C136.583 245.651 137.433 248.183 138.919 249.872C140.406 251.56 142.53 252.404 144.866 252.404ZM189.25 259.367L177.57 245.018V259.367H169.075V214H177.782V239.743L189.25 225.394H200.505L185.427 242.486L200.505 259.367H189.25ZM234.909 260C231.723 260 228.75 259.367 225.989 257.89C223.441 256.413 221.317 254.303 219.831 251.771C218.344 249.028 217.707 246.073 217.707 242.697C217.707 239.321 218.556 236.156 220.043 233.413C221.53 230.67 223.653 228.771 226.414 227.294C229.175 225.817 232.148 225.183 235.333 225.183C238.519 225.183 241.492 225.817 244.253 227.294C247.013 228.771 248.925 230.67 250.624 233.413C252.11 236.156 252.96 239.11 252.96 242.697C252.96 246.284 252.11 249.239 250.624 251.771C249.137 254.514 247.013 256.413 244.253 257.89C241.28 259.156 238.094 260 234.909 260ZM234.909 252.404C236.395 252.404 237.882 251.982 239.368 251.349C240.855 250.505 241.917 249.45 242.766 247.972C243.616 246.495 244.04 244.596 244.04 242.486C244.04 239.321 243.191 236.789 241.492 235.101C239.793 233.413 237.669 232.569 235.333 232.569C232.785 232.569 230.874 233.413 229.175 235.101C227.476 236.789 226.626 239.321 226.626 242.486C226.626 245.651 227.476 248.183 228.962 249.872C230.449 251.56 232.36 252.404 234.909 252.404ZM257.419 220.119C257.419 218.853 257.844 218.009 258.694 217.165C259.543 216.321 260.605 215.899 261.879 215.899C263.578 215.899 264.852 216.321 265.702 217.376C266.551 218.431 267.188 219.697 267.188 221.385C267.188 223.073 266.976 224.55 266.339 225.817C265.702 226.872 265.065 227.927 264.215 228.771C263.366 229.615 262.516 230.248 261.667 230.67C260.817 231.092 260.18 231.303 259.543 231.514L257.419 227.927C258.269 227.505 259.118 227.083 259.755 226.661C260.392 226.028 260.817 225.183 260.817 224.339C259.968 224.339 259.118 224.128 258.269 223.495C257.632 222.44 257.419 221.385 257.419 220.119ZM271.86 238.055C271.86 233.835 272.71 230.037 274.621 226.872C276.532 223.495 279.081 220.963 282.478 219.064C285.876 217.165 289.487 216.321 293.521 216.321C298.406 216.321 302.441 217.587 306.051 219.908C309.661 222.44 312.21 225.817 313.696 230.037H303.715C302.653 227.927 301.379 226.45 299.468 225.394C297.769 224.339 295.645 223.917 293.309 223.917C290.761 223.917 288.637 224.55 286.513 225.606C284.602 226.661 283.116 228.349 282.054 230.459C280.992 232.569 280.355 235.101 280.355 237.844C280.355 240.587 280.992 243.119 282.054 245.229C283.116 247.339 284.602 249.028 286.513 250.083C288.425 251.138 290.761 251.771 293.309 251.771C295.645 251.771 297.769 251.349 299.468 250.294C301.379 249.239 302.653 247.761 303.715 245.651H313.696C312.21 250.083 309.661 253.459 306.051 255.78C302.441 258.101 298.194 259.367 293.521 259.367C289.487 259.367 285.664 258.523 282.478 256.624C279.293 254.725 276.532 252.193 274.621 248.817C272.922 245.862 271.86 242.064 271.86 238.055ZM329.836 214V259.367H321.129V214H329.836ZM353.621 260C350.435 260 347.462 259.367 344.702 257.89C342.153 256.413 340.03 254.303 338.543 251.771C337.056 249.028 336.419 246.073 336.419 242.697C336.419 239.321 337.269 236.156 338.755 233.413C340.242 230.67 342.366 228.771 345.126 227.294C347.887 225.817 350.86 225.183 354.046 225.183C357.231 225.183 360.204 225.817 362.965 227.294C365.726 228.771 367.637 230.67 369.336 233.413C370.823 236.156 371.672 239.11 371.672 242.697C371.672 246.284 370.823 249.239 369.336 251.771C367.849 254.514 365.726 256.413 362.965 257.89C359.992 259.156 356.806 260 353.621 260ZM353.621 252.404C355.108 252.404 356.594 251.982 358.081 251.349C359.567 250.505 360.629 249.45 361.478 247.972C362.328 246.495 362.753 244.596 362.753 242.486C362.753 239.321 361.903 236.789 360.204 235.101C358.505 233.413 356.382 232.569 354.046 232.569C351.71 232.569 349.586 233.413 347.887 235.101C346.188 236.789 345.339 239.321 345.339 242.486C345.339 245.651 346.188 248.183 347.675 249.872C349.161 251.56 351.073 252.404 353.621 252.404ZM375.495 242.486C375.495 238.899 376.132 235.945 377.618 233.202C379.105 230.459 381.016 228.56 383.565 227.083C386.113 225.606 389.086 224.972 392.271 224.972C396.519 224.972 399.917 226.028 402.677 228.138C405.438 230.248 407.349 233.202 408.199 237H398.855C398.43 235.523 397.581 234.468 396.306 233.624C395.245 232.78 393.758 232.358 392.059 232.358C389.511 232.358 387.599 233.202 386.113 235.101C384.626 236.789 383.989 239.321 383.989 242.697C383.989 245.862 384.626 248.395 386.113 250.294C387.599 251.982 389.511 252.826 392.059 252.826C395.457 252.826 397.793 251.349 398.855 248.183H408.199C407.349 251.771 405.438 254.725 402.677 256.835C399.917 258.945 396.306 260 392.271 260C389.086 260 386.113 259.367 383.565 257.89C381.016 256.413 379.105 254.303 377.618 251.771C376.132 249.028 375.495 245.862 375.495 242.486ZM434.957 259.367L423.277 245.018V259.367H414.57V214H423.277V239.743L434.745 225.394H446L430.922 242.486L446 259.367H434.957Z" fill="#FF7A00"/>
</svg>
