<svg width="497" height="434" viewBox="0 0 497 434" fill="none" xmlns="http://www.w3.org/2000/svg">
<path d="M123.664 263.217C122.318 263.217 121.21 262.78 120.326 261.905C119.442 261.03 119 259.927 119 258.601V218.198C119 216.811 119.442 215.694 120.326 214.846C121.21 213.999 122.325 213.581 123.664 213.581C125.004 213.581 126.194 214.005 127.05 214.846C127.9 215.694 128.329 216.811 128.329 218.198V258.601C128.329 259.927 127.9 261.03 127.05 261.905C126.194 262.78 125.065 263.217 123.664 263.217ZM161.278 263.217C159.938 263.217 158.823 262.78 157.939 261.905C157.055 261.03 156.613 259.927 156.613 258.601V236.32C156.613 232.875 155.974 230.068 154.689 227.895C153.411 225.721 151.684 224.106 149.515 223.05C147.346 221.993 144.864 221.461 142.056 221.461C139.493 221.461 137.174 221.973 135.101 223.002C133.027 224.032 131.375 225.405 130.158 227.121C128.934 228.844 128.329 230.822 128.329 233.056H122.563C122.563 229.254 123.494 225.856 125.357 222.868C127.22 219.88 129.763 217.511 133 215.755C136.236 214.005 139.867 213.13 143.892 213.13C147.917 213.13 151.867 214.025 155.192 215.802C158.517 217.585 161.142 220.196 163.066 223.635C164.99 227.074 165.949 231.307 165.949 236.32V258.601C165.949 259.927 165.507 261.03 164.623 261.905C163.739 262.78 162.624 263.217 161.284 263.217H161.278Z" fill="white"/>
<path d="M201.735 263.217C197.313 263.217 193.343 262.118 189.832 259.925C186.314 257.733 183.546 254.749 181.513 250.987C179.481 247.226 178.468 242.968 178.468 238.214C178.468 233.46 179.576 229.189 181.783 225.401C183.998 221.612 186.996 218.615 190.784 216.423C194.571 214.23 198.825 213.13 203.551 213.13C208.278 213.13 212.518 214.23 216.279 216.423C220.033 218.622 223.017 221.612 225.232 225.401C227.446 229.189 228.547 233.467 228.547 238.214H225.002C225.002 242.968 223.989 247.226 221.957 250.987C219.925 254.749 217.156 257.726 213.639 259.925C210.121 262.124 206.158 263.217 201.735 263.217ZM203.551 255.098C206.644 255.098 209.399 254.36 211.822 252.885C214.246 251.41 216.157 249.398 217.548 246.837C218.939 244.282 219.641 241.406 219.641 238.214C219.641 235.023 218.946 232.066 217.548 229.504C216.15 226.95 214.246 224.931 211.822 223.456C209.399 221.981 206.644 221.244 203.551 221.244C200.459 221.244 197.779 221.981 195.328 223.456C192.877 224.931 190.932 226.95 189.508 229.504C188.083 232.066 187.374 234.962 187.374 238.214C187.374 241.466 188.083 244.276 189.508 246.837C190.932 249.398 192.87 251.41 195.328 252.885C197.779 254.36 200.52 255.098 203.551 255.098ZM223.908 262.949C222.571 262.949 221.471 262.513 220.593 261.642C219.715 260.77 219.277 259.67 219.277 258.35V244.537L221.005 234.969L228.547 238.221V258.35C228.547 259.67 228.108 260.77 227.23 261.642C226.352 262.513 225.245 262.949 223.915 262.949H223.908Z" fill="white"/>
<path d="M201.735 263.217C197.313 263.217 193.343 262.118 189.832 259.925C186.314 257.733 183.546 254.749 181.513 250.987C179.481 247.226 178.468 242.968 178.468 238.214C178.468 233.46 179.576 229.189 181.783 225.401C183.998 221.612 186.996 218.615 190.784 216.423C194.571 214.23 198.825 213.13 203.551 213.13C208.278 213.13 212.518 214.23 216.279 216.423C220.033 218.622 223.017 221.612 225.232 225.401C227.446 229.189 228.547 233.467 228.547 238.214H225.002C225.002 242.968 223.989 247.226 221.957 250.987C219.925 254.749 217.156 257.726 213.639 259.925C210.121 262.124 206.158 263.217 201.735 263.217ZM203.551 255.098C206.644 255.098 209.399 254.36 211.822 252.885C214.246 251.41 216.157 249.398 217.548 246.837C218.939 244.282 219.641 241.406 219.641 238.214C219.641 235.023 218.946 232.066 217.548 229.504C216.15 226.95 214.246 224.931 211.822 223.456C209.399 221.981 206.644 221.244 203.551 221.244C200.459 221.244 197.779 221.981 195.328 223.456C192.877 224.931 190.932 226.95 189.508 229.504C188.083 232.066 187.374 234.962 187.374 238.214C187.374 241.466 188.083 244.276 189.508 246.837C190.932 249.398 192.87 251.41 195.328 252.885C197.779 254.36 200.52 255.098 203.551 255.098ZM223.908 262.949C222.571 262.949 221.471 262.513 220.593 261.642C219.715 260.77 219.277 259.67 219.277 258.35V244.537L221.005 234.969L228.547 238.221V258.35C228.547 259.67 228.108 260.77 227.23 261.642C226.352 262.513 225.245 262.949 223.915 262.949H223.908Z" fill="white"/>
<path d="M254.401 263.217C251.792 263.217 249.48 262.486 247.466 261.029C245.452 259.573 243.88 257.581 242.757 255.054C241.628 252.534 241.066 249.628 241.066 246.343V196.559C241.066 195.225 241.483 194.127 242.308 193.274C243.134 192.42 244.204 192 245.511 192C246.819 192 247.882 192.427 248.714 193.274C249.546 194.127 249.956 195.218 249.956 196.559V246.35C249.956 248.599 250.372 250.455 251.197 251.911C252.03 253.368 253.093 254.099 254.401 254.099H256.626C257.808 254.099 258.773 254.526 259.519 255.373C260.259 256.226 260.628 257.317 260.628 258.658C260.628 260 260.067 261.09 258.938 261.944C257.808 262.797 256.362 263.217 254.579 263.217H254.401Z" fill="white"/>
<path d="M291.292 264C287.084 264 283.317 263.098 279.992 261.287C276.667 259.476 274.043 256.824 272.119 253.331C270.194 249.832 269.236 245.54 269.236 240.448V217.819C269.236 216.473 269.678 215.352 270.562 214.463C271.445 213.575 272.56 213.13 273.9 213.13C275.239 213.13 276.354 213.575 277.238 214.463C278.122 215.352 278.564 216.473 278.564 217.819V240.448C278.564 243.886 279.203 246.722 280.488 248.957C281.767 251.199 283.507 252.853 285.703 253.926C287.9 254.999 290.374 255.539 293.115 255.539C295.855 255.539 298.071 255.019 300.118 253.974C302.158 252.928 303.796 251.52 305.013 249.743C306.23 247.966 306.842 245.97 306.842 243.763H312.608C312.608 247.57 311.676 251.001 309.813 254.069C307.95 257.138 305.421 259.558 302.219 261.335C299.016 263.112 295.372 264 291.279 264H291.292ZM311.52 263.542C310.174 263.542 309.066 263.098 308.182 262.209C307.298 261.321 306.856 260.2 306.856 258.854V217.819C306.856 216.411 307.298 215.276 308.182 214.415C309.066 213.554 310.181 213.13 311.52 213.13C312.859 213.13 314.049 213.561 314.906 214.415C315.763 215.276 316.184 216.411 316.184 217.819V258.854C316.184 260.207 315.756 261.321 314.906 262.209C314.049 263.098 312.921 263.542 311.52 263.542Z" fill="white"/>
<path d="M353.108 264C348.899 264 345.133 263.098 341.808 261.287C338.483 259.476 335.858 256.824 333.934 253.331C332.01 249.832 331.051 245.54 331.051 240.448V217.819C331.051 216.473 331.493 215.352 332.377 214.463C333.261 213.575 334.376 213.13 335.716 213.13C337.055 213.13 338.17 213.575 339.054 214.463C339.938 215.352 340.38 216.473 340.38 217.819V240.448C340.38 243.886 341.019 246.722 342.304 248.957C343.582 251.199 345.323 252.853 347.519 253.926C349.715 254.999 352.19 255.539 354.93 255.539C357.67 255.539 359.887 255.019 361.933 253.974C363.973 252.928 365.612 251.52 366.829 249.743C368.046 247.966 368.658 245.97 368.658 243.763H374.424C374.424 247.57 373.492 251.001 371.629 254.069C369.766 257.138 367.237 259.558 364.034 261.335C360.832 263.112 357.188 264 353.094 264H353.108ZM373.336 263.542C371.989 263.542 370.881 263.098 369.997 262.209C369.113 261.321 368.671 260.2 368.671 258.854V217.819C368.671 216.411 369.113 215.276 369.997 214.415C370.881 213.554 371.996 213.13 373.336 213.13C374.675 213.13 375.865 213.561 376.722 214.415C377.578 215.276 378 216.411 378 217.819V258.854C378 260.207 377.572 261.321 376.722 262.209C375.865 263.098 374.736 263.542 373.336 263.542Z" fill="white"/>
<path d="M203.508 248.348C208.693 248.348 212.897 243.968 212.897 238.565C212.897 233.162 208.693 228.783 203.508 228.783C198.322 228.783 194.118 233.162 194.118 238.565C194.118 243.968 198.322 248.348 203.508 248.348Z" fill="#FFA336"/>
</svg>
