<svg width="497" height="434" viewBox="0 0 497 434" fill="none" xmlns="http://www.w3.org/2000/svg">
<path fill-rule="evenodd" clip-rule="evenodd" d="M138.818 239.091L157 206L125.182 224.909L107 258L138.818 239.091ZM127.996 236.165C130.207 238.465 133.793 238.465 136.004 236.165C138.216 233.865 138.216 230.135 136.004 227.835C133.793 225.535 130.207 225.535 127.996 227.835C125.784 230.135 125.784 233.865 127.996 236.165Z" fill="#8C0EFF"/>
<path d="M186.539 258.997C181.812 258.997 177.444 258.392 173.44 257.182C169.433 255.972 165.955 254.222 163 251.933L169.697 243.001C172.652 244.964 175.492 246.435 178.216 247.418C180.941 248.399 183.65 248.889 186.343 248.889C189.363 248.889 191.776 248.383 193.582 247.369C195.388 246.354 196.291 245.03 196.291 243.394C196.291 242.085 195.78 241.039 194.765 240.254C193.747 239.469 192.122 238.914 189.889 238.585L180.041 237.112C174.919 236.327 171.043 234.676 168.418 232.154C165.79 229.635 164.479 226.315 164.479 222.192C164.479 218.854 165.348 215.993 167.088 213.605C168.826 211.216 171.289 209.351 174.476 208.011C177.662 206.67 181.454 206 185.853 206C189.596 206 193.255 206.524 196.835 207.57C200.413 208.618 203.779 210.22 206.933 212.379L200.431 221.113C197.607 219.347 194.914 218.069 192.355 217.284C189.795 216.499 187.199 216.105 184.574 216.105C182.142 216.105 180.19 216.565 178.714 217.48C177.235 218.398 176.497 219.608 176.497 221.11C176.497 222.484 177.023 223.564 178.072 224.349C179.122 225.134 180.928 225.692 183.49 226.018L193.242 227.492C198.364 228.211 202.269 229.831 204.962 232.35C207.655 234.869 209 238.126 209 242.117C209 245.389 208.016 248.284 206.045 250.803C204.074 253.323 201.415 255.318 198.068 256.791C194.718 258.262 190.879 259 186.544 259L186.539 258.997Z" fill="#FDFDFD"/>
<path d="M303.4 259C299.784 259 296.588 258.327 293.812 256.989C291.035 255.649 288.873 253.8 287.324 251.445C285.775 249.09 285 246.375 285 243.298C285 238.39 286.824 234.58 290.471 231.865C294.118 229.15 299.138 227.791 305.53 227.791C309.921 227.791 314.054 228.477 317.927 229.852V226.122C317.927 223.178 317.021 220.954 315.214 219.449C313.406 217.944 310.76 217.19 307.274 217.19C305.143 217.19 302.85 217.535 300.397 218.221C297.943 218.906 295.101 219.973 291.874 221.41L287.031 211.497C291.032 209.667 294.858 208.292 298.508 207.374C302.155 206.459 305.819 206 309.499 206C316.278 206 321.558 207.653 325.334 210.958C329.112 214.262 331 218.925 331 224.944V258.116H317.924V254.486C315.859 256.056 313.63 257.201 311.242 257.92C308.85 258.64 306.236 259 303.397 259H303.4ZM297.59 243.003C297.59 244.967 298.429 246.521 300.109 247.666C301.787 248.811 304.015 249.385 306.792 249.385C308.987 249.385 311.02 249.108 312.893 248.55C314.764 247.995 316.445 247.16 317.93 246.047V238.588C316.317 237.934 314.636 237.443 312.893 237.115C311.151 236.789 309.278 236.624 307.276 236.624C304.239 236.624 301.867 237.198 300.157 238.343C298.446 239.488 297.592 241.042 297.592 243.006L297.59 243.003Z" fill="#FDFDFD"/>
<path d="M270.745 207L263.927 234.318L267.048 244.784L264.053 245.718L252.512 207H241.638L233.451 234.05L236.158 244.93L233.126 245.718L230.515 235.228L223.448 207H211L224.692 258H237.332L247.001 225.405L256.671 258H269.214L283 207H270.745Z" fill="#FDFDFD"/>
<path d="M360.263 278L367.084 261.35L390 207H375.867L363.557 237.057L366.101 244.075L363.171 245.16L349.332 207H335L354.382 257.777L345.999 277.92" fill="#FDFDFD"/>
</svg>
