<svg width="86" height="64" viewBox="0 0 86 64" fill="none" xmlns="http://www.w3.org/2000/svg">
<g clip-path="url(#clip0_1135_3357)">
<path d="M85.5 31.49L60.21 59.91C59.3 60.92 58.26 61.69 57.09 62.23C55.92 62.77 54.68 63.04 53.38 63.04C50.91 63.04 48.82 62.23 47.13 60.6C45.44 58.97 44.59 56.97 44.59 54.59C44.59 53.29 44.84 52.03 45.35 50.83C45.85 49.63 46.58 48.55 47.52 47.61L54.4 40.73H9.18C6.61 40.73 4.44 39.85 2.66 38.09C0.88 36.33 0 34.13 0 31.5C0 28.87 0.89 26.76 2.66 24.98C4.43 23.21 6.61 22.32 9.18 22.32H54.39L47.51 14.41C46.53 13.37 45.8 12.29 45.31 11.16C44.82 10.03 44.58 8.91999 44.58 7.81999C44.58 5.69999 45.45 3.86999 47.19 2.32999C48.93 0.779994 50.99 0.00999451 53.37 0.00999451C54.7 0.00999451 55.97 0.289994 57.16 0.839994C58.35 1.38999 59.37 2.15999 60.21 3.12999L85.5 31.5V31.49Z" fill="#303030"/>
</g>
<defs>
<clipPath id="clip0_1135_3357">
<rect width="85.5" height="63.04" fill="white"/>
</clipPath>
</defs>
</svg>
