<svg width="497" height="434" viewBox="0 0 497 434" fill="none" xmlns="http://www.w3.org/2000/svg">
<mask id="mask0_1168_5976" style="mask-type:luminance" maskUnits="userSpaceOnUse" x="182" y="144" width="130" height="147">
<path d="M311.206 144H182V291H311.206V144Z" fill="white"/>
</mask>
<g mask="url(#mask0_1168_5976)">
<path d="M182 193.827C188.362 191.611 192.569 187.389 193.566 180.52C194.17 176.358 193.702 172.211 191.956 168.304C190.764 165.642 188.74 163.926 186.015 162.976C184.439 162.426 184.449 162.373 184.489 160.657C184.526 159.016 184.619 157.376 184.61 155.735C184.607 155.097 184.826 154.829 185.387 154.588C191.798 151.85 198.454 149.925 205.237 148.413C215.094 146.219 225.084 144.978 235.164 144.463C243.817 144.019 252.463 144.078 261.113 144.669C270.051 145.278 278.905 146.456 287.654 148.403C294.405 149.907 301.04 151.803 307.423 154.535C308.07 154.813 308.358 155.104 308.349 155.86C308.327 157.763 308.398 159.673 308.488 161.576C308.516 162.173 308.364 162.46 307.792 162.67C306.132 163.282 304.473 163.895 303.16 165.201C301.031 167.323 300.08 170.001 299.609 172.873C299.028 176.426 298.817 179.992 300.055 183.477C301.606 187.846 304.488 190.971 308.671 192.89C309.426 193.237 310.457 193.455 310.813 194.062C311.154 194.64 310.807 195.649 310.72 196.462C310.194 201.356 309.85 206.281 309.089 211.14C306.089 230.235 298.966 247.514 286.446 262.327C277.982 272.343 267.8 280.172 256.271 286.24C253.29 287.809 250.21 289.184 247.154 290.606C246.811 290.766 246.284 290.803 245.941 290.656C234.183 285.64 223.419 279.025 214.032 270.23C202.278 259.217 193.944 245.954 188.675 230.701C185.814 222.422 183.981 213.903 183.04 205.193C182.703 202.074 182.458 198.949 182.164 195.824C182.139 195.565 182.059 195.311 182.003 195.055C182.003 194.646 182.003 194.234 182.003 193.824L182 193.827ZM193.393 158.91C194.557 160.269 195.792 161.426 196.683 162.804C200.445 168.617 201.247 175.114 200.324 181.805C199.371 188.73 195.705 194.03 189.854 197.768C189.436 198.034 189.241 198.299 189.3 198.815C189.442 200.008 189.526 201.209 189.644 202.406C190.523 211.334 192.269 220.069 195.201 228.554C199.662 241.464 206.537 252.861 216.091 262.571C224.731 271.355 234.824 278.003 245.965 283.078C246.275 283.219 246.77 283.181 247.086 283.031C249.083 282.09 251.08 281.137 253.033 280.106C262.293 275.218 270.667 269.105 277.908 261.48C288.223 250.617 295.22 237.832 299.368 223.419C301.622 215.59 302.897 207.59 303.6 199.484C303.69 198.459 303.417 197.962 302.569 197.418C298.897 195.062 296.201 191.818 294.356 187.842C292.421 183.68 292.043 179.28 292.433 174.776C292.783 170.767 293.616 166.863 295.845 163.451C296.9 161.835 298.257 160.419 299.51 158.876C280.242 152.488 260.265 150.647 239.993 151.222C224.109 151.672 208.485 153.819 193.393 158.91Z" fill="white"/>
<path d="M235.542 200.359V174.633H257.364V200.321H282.908V222.466H257.442V248.167H235.56V222.538C235.124 222.519 234.79 222.488 234.455 222.488C226.61 222.488 218.766 222.478 210.918 222.497C210.283 222.497 209.992 222.397 209.995 221.647C210.023 214.812 210.011 207.975 210.014 201.14C210.014 200.912 210.048 200.684 210.069 200.359H235.542Z" fill="white"/>
</g>
</svg>
