<svg width="497" height="434" viewBox="0 0 497 434" fill="none" xmlns="http://www.w3.org/2000/svg">
<path d="M227 174.463C229.352 170.537 232.207 166.439 235.566 162.341C238.926 158.073 242.453 154.317 246.148 150.561C250.012 146.976 253.203 143.732 256.059 141C259.754 143.049 262.609 145.439 264.793 148.171C266.977 150.902 268.656 153.976 270 157.732C265.969 160.293 261.434 162.854 256.563 165.244C251.859 167.463 246.988 169.683 242.117 171.561C237.414 173.439 232.711 174.976 228.344 176L227 174.463Z" fill="#FBFBFB"/>
<path d="M227.734 313L185 196H218.638L247.985 281.401H249.186L278.534 196H312L269.266 313H227.734Z" fill="#FBFBFB"/>
</svg>
